<?xml version="1.0" encoding="UTF-8" standalone="no"?>
<svg width="228px" height="166px" viewBox="0 0 228 166" version="1.1" xmlns="http://www.w3.org/2000/svg" xmlns:xlink="http://www.w3.org/1999/xlink" xmlns:sketch="http://www.bohemiancoding.com/sketch/ns">
    <!-- Generator: Sketch 3.2.2 (9983) - http://www.bohemiancoding.com/sketch -->
    <title>Artboard</title>
    <desc>Created with Sketch.</desc>
    <defs></defs>
    <g id="Page-1" stroke="none" stroke-width="1" fill="none" fill-rule="evenodd" sketch:type="MSPage">
        <g id="Artboard" sketch:type="MSArtboardGroup" fill="#FFFFFF">
            <path d="M81.5254413,111.914042 L220.002392,111.914042 C224.418664,111.914042 228,108.330677 228,103.910373 L228,48.5672181 L228,48.5672181 C224.605036,48.6024101 222.54635,49.5660204 221.823882,51.4580765 L207.129059,87.6913667 C206.053132,90.299723 205.005535,92.6528787 203.986235,94.7509045 C202.966936,96.8489302 201.791928,98.6492361 200.461176,100.151876 C199.130425,101.654516 197.573185,102.802743 195.789412,103.59659 C194.005638,104.390438 191.811346,104.787356 189.206471,104.787356 C187.2245,104.787356 185.384126,104.532194 183.685294,104.021864 C181.986462,103.511533 180.52832,102.746049 179.310824,101.725388 C178.093327,100.704726 177.144827,99.471446 176.465294,98.0255093 C175.785761,96.5795727 175.446,94.9210232 175.446,93.049811 C175.446,92.3126668 175.587567,91.5330068 175.870706,90.7108075 C176.153845,89.8886083 176.592703,89.1372995 177.187294,88.4568587 C177.781885,87.776418 178.518035,87.2093925 179.395765,86.7557653 C180.273495,86.3021381 181.278622,86.0753279 182.411176,86.0753279 C184.393147,86.0753279 185.950386,86.5572996 187.082941,87.5212573 C188.215496,88.4852151 188.781765,89.7043199 188.781765,91.1786082 C188.781765,92.6528966 188.300436,93.8578257 187.337765,94.7934318 C186.375093,95.7290379 185.100988,96.2535364 183.515412,96.3669432 C184.025061,97.2174942 184.690427,97.8837491 185.511529,98.365728 C186.332632,98.8477069 187.734147,99.0886927 189.716118,99.0886927 C191.528205,99.0886927 193.057131,98.493316 194.302941,97.3025446 C195.548751,96.1117733 196.879483,94.2122379 198.295176,91.6038816 L181.391882,51.5431311 C180.93886,50.5791734 180.174398,49.8420403 179.098471,49.3317097 C178.022544,48.8213791 176.805066,48.5662176 175.446,48.5662176 L175.446,41.7618439 L201.438,41.7618439 L201.438,48.5662176 L198.719882,48.5662176 C197.927094,48.5662176 197.332512,48.7363253 196.936118,49.0765457 C196.539724,49.4167661 196.341529,49.8420352 196.341529,50.3523657 C196.341529,50.6358827 196.42647,50.976098 196.596353,51.3730218 L205.685059,75.2733846 L215.028588,52.2235685 C215.198471,51.7132379 215.283412,51.2312663 215.283412,50.7776391 C215.283412,49.3033508 214.179188,48.5662176 211.970706,48.5662176 L210.271882,48.5662176 L210.271882,41.7618439 L228,41.7618439 L228,8.00366922 C228,3.58112452 224.419349,0 220.002392,0 L7.99760834,0 C3.58133554,0 0,3.58336477 0,8.00366922 L0,19.5625745 L13.8834118,19.5625745 L13.8834118,62.1749651 L28.4932941,52.2235685 C29.2294547,51.7132379 29.5975294,51.0895099 29.5975294,50.3523657 C29.5975294,49.8987386 29.413492,49.4876451 29.0454118,49.119073 C28.6773315,48.7505009 28.1252194,48.5662176 27.3890588,48.5662176 L23.3968235,48.5662176 L23.3968235,41.7618439 L53.6358824,41.7618439 L53.6358824,48.5662176 C50.9743788,48.622921 48.4544825,48.9914876 46.0761176,49.6719284 C43.6977528,50.3523691 41.5742446,51.3446637 39.7055294,52.6488419 L35.2036471,55.7108101 L48.1147059,75.3584393 C49.360516,77.2863548 51.7388452,78.2502981 55.2497647,78.2502981 L55.2497647,85.0546719 L25.4354118,85.0546719 L25.4354118,78.2502981 L28.7481176,78.2502981 C30.2770665,78.2502981 31.0415294,77.7116239 31.0415294,76.6342593 C31.0415294,76.3507424 30.9849025,76.1239322 30.8716471,75.953822 C30.7583916,75.7837118 30.6451378,75.5852529 30.5318824,75.3584393 L22.9721176,63.6208946 L13.8834118,69.4896669 L13.8834118,74.4228379 C13.8834118,75.727016 14.4779941,76.6909593 15.6671765,77.3146967 C16.8563589,77.9384341 18.526852,78.2502981 20.6787059,78.2502981 L20.6787059,85.0546719 L4.4408921e-16,85.0546719 L0,85.0546719 L0,103.910373 C0,108.332917 3.58065122,111.914042 7.99760834,111.914042 L39.9995404,111.914042 L39.9995404,166 L81.5254413,111.914042 Z M82.4890588,41.7618439 L93.6163529,41.7618439 L93.1916471,48.991491 C91.6060705,48.6512706 89.9355774,48.4102848 88.1801176,48.2685263 C86.4246579,48.1267678 84.5276573,48.0558896 82.4890588,48.0558896 L82.4890588,75.1883299 C82.4890588,76.4925081 82.7297231,77.4564514 83.2110588,78.0801888 C83.6923946,78.7039261 84.5276411,79.0157902 85.7168235,79.0157902 C86.9060059,79.0157902 87.7270958,78.6755749 88.1801176,77.9951341 C88.6331395,77.3146933 88.8596471,76.3791013 88.8596471,75.1883299 L88.8596471,71.1057057 L93.8711765,71.1057057 L93.8711765,73.7424005 C93.8711765,75.5569092 93.6588257,77.1871075 93.2341176,78.6330441 C92.8094096,80.0789808 92.1015736,81.3264368 91.1105882,82.3754497 C90.1196029,83.4244626 88.8171845,84.2324739 87.2032941,84.7995078 C85.5894037,85.3665418 83.6216195,85.6500546 81.2998824,85.6500546 C76.0335031,85.6500546 72.3244421,84.5301793 70.1725882,82.290395 C68.0207343,80.0506108 66.9448235,77.0028489 66.9448235,73.1470178 L66.9448235,48.0558896 L59.6398824,48.0558896 L59.6398824,42.8675546 C61.1688312,42.7541478 62.6836003,42.5273376 64.1842353,42.1871172 C65.6848702,41.8468969 67.015602,41.2515201 68.1764706,40.4009691 C69.3373391,39.5504182 70.2716827,38.3596647 70.9795294,36.8286729 C71.6873761,35.2976812 72.0412941,33.313092 72.0412941,30.8748459 L72.0412941,29.0036431 L82.4890588,28.4082604 L82.4890588,41.7618439 Z M120.600824,41.7618439 L131.728118,41.7618439 L131.303412,48.991491 C129.717835,48.6512706 128.047342,48.4102848 126.291882,48.2685263 C124.536423,48.1267678 122.639422,48.0558896 120.600824,48.0558896 L120.600824,75.1883299 C120.600824,76.4925081 120.841488,77.4564514 121.322824,78.0801888 C121.804159,78.7039261 122.639406,79.0157902 123.828588,79.0157902 C125.017771,79.0157902 125.83886,78.6755749 126.291882,77.9951341 C126.744904,77.3146933 126.971412,76.3791013 126.971412,75.1883299 L126.971412,71.1057057 L131.982941,71.1057057 L131.982941,73.7424005 C131.982941,75.5569092 131.77059,77.1871075 131.345882,78.6330441 C130.921174,80.0789808 130.213338,81.3264368 129.222353,82.3754497 C128.231368,83.4244626 126.928949,84.2324739 125.315059,84.7995078 C123.701168,85.3665418 121.733384,85.6500546 119.411647,85.6500546 C114.145268,85.6500546 110.436207,84.5301793 108.284353,82.290395 C106.132499,80.0506108 105.056588,77.0028489 105.056588,73.1470178 L105.056588,48.0558896 L97.7516471,48.0558896 L97.7516471,42.8675546 C99.2805959,42.7541478 100.795365,42.5273376 102.296,42.1871172 C103.796635,41.8468969 105.127367,41.2515201 106.288235,40.4009691 C107.449104,39.5504182 108.383447,38.3596647 109.091294,36.8286729 C109.799141,35.2976812 110.153059,33.313092 110.153059,30.8748459 L110.153059,29.0036431 L120.600824,28.4082604 L120.600824,41.7618439 Z M158.712588,41.7618439 L169.839882,41.7618439 L169.415176,48.991491 C167.8296,48.6512706 166.159107,48.4102848 164.403647,48.2685263 C162.648187,48.1267678 160.751187,48.0558896 158.712588,48.0558896 L158.712588,75.1883299 C158.712588,76.4925081 158.953252,77.4564514 159.434588,78.0801888 C159.915924,78.7039261 160.751171,79.0157902 161.940353,79.0157902 C163.129535,79.0157902 163.950625,78.6755749 164.403647,77.9951341 C164.856669,77.3146933 165.083176,76.3791013 165.083176,75.1883299 L165.083176,71.1057057 L170.094706,71.1057057 L170.094706,73.7424005 C170.094706,75.5569092 169.882355,77.1871075 169.457647,78.6330441 C169.032939,80.0789808 168.325103,81.3264368 167.334118,82.3754497 C166.343132,83.4244626 165.040714,84.2324739 163.426824,84.7995078 C161.812933,85.3665418 159.845149,85.6500546 157.523412,85.6500546 C152.257032,85.6500546 148.547972,84.5301793 146.396118,82.290395 C144.244264,80.0506108 143.168353,77.0028489 143.168353,73.1470178 L143.168353,48.0558896 L135.863412,48.0558896 L135.863412,42.8675546 C137.392361,42.7541478 138.90713,42.5273376 140.407765,42.1871172 C141.9084,41.8468969 143.239131,41.2515201 144.4,40.4009691 C145.560869,39.5504182 146.495212,38.3596647 147.203059,36.8286729 C147.910905,35.2976812 148.264824,33.313092 148.264824,30.8748459 L148.264824,29.0036431 L158.712588,28.4082604 L158.712588,41.7618439 Z" id="Rectangle-1" sketch:type="MSShapeGroup"></path>
        </g>
    </g>
</svg>